<svg id="Capa_1" enable-background="new 0 0 512 512" height="512" viewBox="0 0 512 512" width="512" xmlns="http://www.w3.org/2000/svg"><g><path d="m183.27 145.117c-41.651 62.476-62.77 121.02-62.77 174.007 0 42.393 23.272 79.344 67.3 106.861 35.713 21.552 60.983 27.121 68.2 29.101 5.822-1.671 32.252-7.263 68.2-29.101 44.028-27.518 67.3-64.469 67.3-106.861 0-52.986-21.119-111.53-62.769-174.006-41.713-59.909-54.635-69.277-72.731-88.204-18.096 18.927-31.018 28.294-72.73 88.203zm125.635 255.049c-13.596 8.571-27.358 14.7-37.905 18.734v-93.56l55.856-55.856-21.213-21.213-34.643 34.643v-165.275c9.844 11.988 21.505 27.182 33.094 44.608 26.188 39.38 57.406 98.562 57.406 156.877 0 31.772-17.695 59.039-52.595 81.042zm-158.405-81.042c0-58.316 31.218-117.499 57.406-156.878 11.588-17.425 23.249-32.619 33.094-44.608v105.024l-19.861-19.861-21.213 21.213 41.074 41.074v78.076l-43.406-43.406-21.213 21.213 64.619 64.619v33.31c-10.545-4.034-24.308-10.162-37.905-18.734-34.9-22.003-52.595-49.27-52.595-81.042z"/></g><path d="m465.271 108.489c3.975-6.719 6.266-14.546 6.266-22.902 0-24.882-20.243-45.125-45.125-45.125-8.354 0-16.179 2.29-22.896 6.263-42.861-30.351-93.926-46.725-147.516-46.725-68.38 0-132.667 26.629-181.02 74.98-48.351 48.353-74.98 112.64-74.98 181.02 0 53.59 16.374 104.655 46.725 147.517-3.973 6.718-6.263 14.542-6.263 22.896 0 24.882 20.243 45.125 45.125 45.125 8.354 0 16.18-2.291 22.898-6.264 42.861 30.351 93.925 46.726 147.515 46.726 68.38 0 132.667-26.629 181.02-74.98 48.351-48.353 74.98-112.64 74.98-181.02 0-53.589-16.378-104.65-46.729-147.511zm-38.858-38.027c8.34 0 15.125 6.785 15.125 15.125s-6.785 15.125-15.125 15.125-15.125-6.785-15.125-15.125 6.785-15.125 15.125-15.125zm-340.826 371.076c-8.34 0-15.125-6.785-15.125-15.125s6.785-15.125 15.125-15.125 15.125 6.785 15.125 15.125-6.785 15.125-15.125 15.125zm330.219-25.732c-42.686 42.686-99.439 66.194-159.806 66.194-46.446 0-90.74-13.937-128.145-39.799 1.843-4.917 2.857-10.236 2.857-15.789 0-24.882-20.243-45.125-45.125-45.125-5.553 0-10.872 1.014-15.789 2.857-25.861-37.405-39.798-81.699-39.798-128.144 0-60.367 23.508-117.12 66.194-159.806s99.439-66.194 159.806-66.194c46.446 0 90.743 13.931 128.147 39.792-1.844 4.919-2.86 10.24-2.86 15.795 0 24.882 20.243 45.125 45.125 45.125 5.559 0 10.883-1.017 15.805-2.864 25.861 37.406 39.783 81.707 39.783 128.152 0 60.367-23.508 117.12-66.194 159.806z"/></svg>