<svg id="Capa_1" enable-background="new 0 0 512 512" height="512" viewBox="0 0 512 512" width="512" xmlns="http://www.w3.org/2000/svg"><g><path d="m30 256c0-124.617 101.383-226 226-226 42.075 0 81.496 11.568 115.265 31.675 2.92-6.757 7.12-13.089 12.633-18.603 1.919-1.92 3.954-3.68 6.074-5.303-39.899-24.601-85.919-37.769-133.972-37.769-68.38 0-132.667 26.629-181.02 74.98-48.351 48.353-74.98 112.64-74.98 181.02 0 48.056 13.17 94.08 37.773 133.981 1.613-2.114 3.369-4.153 5.299-6.083 5.438-5.438 11.74-9.691 18.589-12.663-20.099-33.762-31.661-73.171-31.661-115.235z"/><path d="m426.413 115.712c7.709 0 15.419-2.941 21.302-8.823 11.764-11.765 11.764-30.839 0-42.603-5.882-5.882-13.592-8.823-21.302-8.823s-15.419 2.941-21.302 8.823c-11.764 11.764-11.764 30.839 0 42.603 5.882 5.882 13.592 8.823 21.302 8.823z"/><path d="m474.226 122.02c-1.612 2.113-3.368 4.152-5.298 6.082-5.437 5.437-11.739 9.69-18.586 12.661 20.097 33.764 31.658 73.173 31.658 115.237 0 124.617-101.383 226-226 226-42.076 0-81.495-11.568-115.263-31.678-2.92 6.758-7.12 13.092-12.635 18.606-1.92 1.92-3.955 3.681-6.076 5.304 39.9 24.6 85.921 37.768 133.974 37.768 68.38 0 132.667-26.629 181.02-74.98 48.351-48.353 74.98-112.64 74.98-181.02 0-48.056-13.17-94.079-37.774-133.98z"/><path d="m85.587 396.288c-7.71 0-15.419 2.941-21.302 8.823-11.765 11.765-11.765 30.839 0 42.603 5.882 5.882 13.592 8.823 21.302 8.823s15.419-2.941 21.302-8.823c11.765-11.764 11.765-30.839 0-42.603-5.882-5.882-13.592-8.823-21.302-8.823z"/><path d="m268.497 406.587 90.868-160.925-6.877-16.452-81.488-22.134v-101.663h-27.497l-90.867 160.924 6.875 16.452 81.489 22.135v101.663z"/></g></svg>